<svg width="200" height="200" viewBox="0 0 200 200" fill="none" xmlns="http://www.w3.org/2000/svg">
<path d="M20.2416 167.176C20.2416 167.358 20.388 167.505 20.5702 167.505H184.388C184.57 167.505 184.717 167.358 184.717 167.176C184.717 166.994 184.57 166.847 184.388 166.847H20.5702C20.388 166.847 20.2416 166.994 20.2416 167.176Z" fill="#09090B"/>
<path d="M105.19 134.708C104.741 137.438 102.368 139.527 99.516 139.527C96.6641 139.527 94.2915 137.438 93.8417 134.708H79.3245V166.208H119.708V134.708L105.19 134.708Z" fill="#D4D4D8"/>
<path d="M84.0202 166.091H80.0289V166.796H84.0202V166.091Z" fill="#D4D4D8"/>
<path d="M119.355 166.208H115.364V166.914H119.355V166.208Z" fill="#D4D4D8"/>
<path d="M180.731 135.531H18.3013C17.0599 135.531 16.05 134.519 16.05 133.276V40.4621C16.05 39.2193 17.0599 38.208 18.3013 38.208H180.731C181.972 38.208 182.982 39.2193 182.982 40.4621V133.276C182.982 134.519 181.972 135.531 180.731 135.531Z" fill="#09090B"/>
<path d="M179.108 42.2044H20.1587V132.004H179.108V42.2044Z" fill="white"/>
<path d="M160.224 76.6912H151.551C150.797 76.6912 150.184 76.0773 150.184 75.3227C150.184 74.5681 150.797 73.9542 151.551 73.9542H160.224C160.978 73.9542 161.591 74.5681 161.591 75.3227C161.591 76.0773 160.978 76.6912 160.224 76.6912Z" fill="#D4D4D8"/>
<path d="M170.198 76.6912H166.151C165.397 76.6912 164.784 76.0773 164.784 75.3227C164.784 74.5681 165.397 73.9542 166.151 73.9542H170.198C170.952 73.9542 171.565 74.5681 171.565 75.3227C171.565 76.0773 170.952 76.6912 170.198 76.6912Z" fill="#D4D4D8"/>
<path d="M73.3878 77.7363H46.9886C45.6409 77.7363 44.5446 76.6385 44.5446 75.2892C44.5446 73.9399 45.6409 72.8421 46.9886 72.8421H73.3878C74.7355 72.8421 75.8319 73.9399 75.8319 75.2892C75.8319 76.6385 74.7355 77.7363 73.3878 77.7363Z" fill="#E12913"/>
<path d="M59.075 84.2647H46.3524C45.531 84.2647 44.8626 83.5955 44.8626 82.7731C44.8626 81.9506 45.531 81.2814 46.3524 81.2814H59.075C59.8964 81.2814 60.5648 81.9506 60.5648 82.7731C60.5648 83.5955 59.8964 84.2647 59.075 84.2647Z" fill="#D4D4D8"/>
<path d="M129.208 90.1563H46.0344C45.2129 90.1563 44.5446 89.4872 44.5446 88.6646C44.5446 87.8421 45.2129 87.1729 46.0344 87.1729H129.208C130.029 87.1729 130.698 87.8421 130.698 88.6646C130.698 89.4872 130.029 90.1563 129.208 90.1563Z" fill="#D4D4D8"/>
<path d="M122.051 94.137H46.0344C45.2129 94.137 44.5446 93.4679 44.5446 92.6453C44.5446 91.8229 45.2129 91.1537 46.0344 91.1537H122.051C122.873 91.1537 123.541 91.8229 123.541 92.6453C123.541 93.4679 122.873 94.137 122.051 94.137Z" fill="#D4D4D8"/>
<path d="M169.95 151.598L166.134 155.61L162.068 151.846L165.884 147.835L169.95 151.598Z" fill="#FFA89E"/>
<path d="M172.997 155.707L164.887 164.233C164.194 164.962 163.328 165.537 162.384 165.898L160.122 166.761C159.655 166.939 159.117 166.836 158.751 166.498C158.322 166.101 158.214 165.465 158.487 164.952L160.662 160.867L162.983 152.583L163.008 152.599C163.64 152.988 164.597 153.572 164.665 153.597C165.867 153.639 166.728 153.337 167.223 152.698C168.087 151.583 167.539 149.803 167.533 149.785L167.529 149.771L167.54 149.762C167.791 149.546 168.057 149.46 168.328 149.506C168.904 149.602 169.316 150.25 169.376 150.349C169.917 150.327 171.576 151.628 171.71 151.733C172.524 151.731 173.122 151.925 173.485 152.308C173.802 152.644 173.94 153.12 173.896 153.724C173.842 154.45 173.523 155.154 172.997 155.707Z" fill="#09090B"/>
<path d="M165.545 156.217H159.969V161.717H165.545V156.217Z" fill="#FFA89E"/>
<path d="M164.593 166.72H152.741C151.728 166.72 150.71 166.492 149.797 166.059L147.612 165.022C147.16 164.808 146.868 164.35 146.868 163.856C146.868 163.276 147.264 162.763 147.83 162.608L152.338 161.378L160.05 157.379L160.056 157.408C160.2 158.128 160.423 159.217 160.452 159.283C161.243 160.177 162.055 160.589 162.867 160.507C164.282 160.366 165.223 158.754 165.232 158.737L165.239 158.725L165.254 158.726C165.585 158.76 165.83 158.892 165.982 159.118C166.305 159.599 166.108 160.338 166.076 160.45C166.463 160.823 166.636 162.907 166.65 163.075C167.209 163.66 167.474 164.222 167.439 164.746C167.408 165.204 167.151 165.629 166.674 166.01C166.1 166.468 165.361 166.72 164.593 166.72Z" fill="#09090B"/>
<path d="M166.207 86.9426L146.449 86.9523L139.863 128.09L159.621 151.602L166.207 145.724L150.593 128.09L166.207 86.9426Z" fill="#09090B"/>
<path d="M154.529 93.0067L166.207 86.9426V157.48L159.621 157.661L154.529 93.0067Z" fill="#09090B"/>
<path d="M142.831 103.439L142.97 97.0179L139.226 96.9365L139.087 103.358C138.388 104.007 137.927 105.016 137.902 106.16C137.859 108.161 139.165 109.813 140.819 109.849C142.474 109.885 143.85 108.292 143.893 106.29C143.918 105.146 143.501 104.118 142.831 103.439Z" fill="#FFA89E"/>
<path d="M160.587 40.7291C160.587 40.7291 165.962 40.7175 163.954 35.5319C161.946 30.3464 158.207 32.6682 158.207 32.6682C158.207 32.6682 156.632 33.5014 156.957 35.3604" fill="#09090B"/>
<path d="M161.125 43.2164C161.125 39.2406 157.906 36.0176 153.935 36.0176C149.965 36.0176 146.746 39.2406 146.746 43.2164C146.746 46.4408 148.863 49.1697 151.781 50.0862L153.171 59.2834L160.257 53.3713C160.257 53.3713 158.726 51.4191 157.905 49.2179C159.845 47.9287 161.125 45.7226 161.125 43.2164Z" fill="#FFA89E"/>
<path d="M157.39 49.2977C157.39 49.2977 158.344 45.6325 156.783 43.9473C155.226 42.2658 155.024 44.8821 155.024 44.8821L153.901 44.6374C153.901 44.6374 154.096 42.0932 151.897 41.6528L153.314 38.6193C153.314 38.6193 147.889 39.6741 147.739 39.1479C146.562 35.008 157.788 31.4716 160.888 37.7875C165.711 47.6109 157.39 49.2977 157.39 49.2977Z" fill="#09090B"/>
<path d="M151.039 55.7109C145.819 56.7321 141.901 61.0837 141.426 66.3876L138.177 102.66H143.879L151.039 55.7109Z" fill="#E12913"/>
<path d="M145.648 84.6104L144.76 94.852L168.864 87.7538L165.927 80.3515L171.395 67.7777L160.232 51.7562L151.319 52.3646L147.876 56.8263" fill="#E12913"/>
<path d="M165.304 94.3367L168.666 88.8667L165.476 86.9014L162.115 92.3713C161.184 92.578 160.277 93.2151 159.678 94.1896C158.63 95.8947 158.923 97.9808 160.332 98.8491C161.741 99.7175 163.733 99.0392 164.781 97.3342C165.38 96.3597 165.539 95.2616 165.304 94.3367Z" fill="#FFA89E"/>
<path d="M158.409 51.959L160.352 51.8783L163.675 54.3927C167.612 55.0649 168.754 55.2534 169.961 57.8575C170.468 58.9517 170.804 60.1174 170.991 61.3089L173.803 79.1347L166.737 96.1702L162.055 90.8973L167.06 77.5785L166.228 74.3927" fill="#E12913"/>
</svg>
