<svg width="200" height="200" viewBox="0 0 200 200" fill="none" xmlns="http://www.w3.org/2000/svg">
<path d="M57.3403 48.8285L56.1713 54.9523L61.9994 56.5918L61.2752 50.0539L57.3403 48.8285Z" fill="#FFA89E"/>
<path d="M22.95 175.591C22.95 175.784 23.1049 175.938 23.2978 175.938H175.936C176.128 175.938 176.283 175.784 176.283 175.591C176.283 175.399 176.128 175.244 175.936 175.244H23.2978C23.1049 175.244 22.95 175.399 22.95 175.591Z" fill="#09090B"/>
<path d="M127.001 92.443H66.8949C60.0788 92.443 54.5533 97.9565 54.5533 104.758V162.914C54.5533 169.715 60.0788 175.229 66.8948 175.229H127.001C133.817 175.229 139.343 169.715 139.343 162.914V104.758C139.343 97.9564 133.817 92.443 127.001 92.443Z" fill="white"/>
<path d="M127.001 175.52H66.8949C59.9286 175.52 54.261 169.865 54.261 162.914V104.758C54.261 97.8066 59.9286 92.1514 66.8949 92.1514H127.001C133.967 92.1514 139.635 97.8066 139.635 104.758V162.914C139.635 169.865 133.967 175.52 127.001 175.52ZM66.8949 92.7346C60.2508 92.7346 54.8455 98.1281 54.8455 104.758V162.914C54.8455 169.544 60.2508 174.937 66.8949 174.937H127.001C133.645 174.937 139.05 169.544 139.05 162.914V104.758C139.05 98.1281 133.645 92.7346 127.001 92.7346L66.8949 92.7346Z" fill="#09090B"/>
<path d="M131.355 117.656H107.195C106.171 117.656 105.337 116.824 105.337 115.802C105.337 114.779 106.171 113.947 107.195 113.947H131.355C132.38 113.947 133.213 114.779 133.213 115.802C133.213 116.824 132.38 117.656 131.355 117.656Z" fill="#E12913"/>
<path d="M108.69 132.239H85.206C84.6139 132.239 84.1322 131.758 84.1322 131.167C84.1322 130.576 84.6139 130.096 85.206 130.096H108.69C109.282 130.096 109.764 130.576 109.764 131.167C109.764 131.758 109.282 132.239 108.69 132.239Z" fill="#E12913"/>
<path d="M75.4977 96.4258H62.09C62.04 96.4258 61.9994 96.4663 61.9994 96.5162V98.0737C61.9994 98.1236 62.04 98.1641 62.09 98.1641H75.4977C75.5477 98.1641 75.5883 98.1236 75.5883 98.0737V96.5162C75.5883 96.4663 75.5477 96.4258 75.4977 96.4258Z" fill="#E12913"/>
<path d="M120.659 98.1641C121.429 98.1641 122.053 97.5415 122.053 96.7734C122.053 96.0054 121.429 95.3828 120.659 95.3828C119.889 95.3828 119.265 96.0054 119.265 96.7734C119.265 97.5415 119.889 98.1641 120.659 98.1641Z" fill="#09090B"/>
<path d="M124.492 98.1641C125.261 98.1641 125.885 97.5415 125.885 96.7734C125.885 96.0054 125.261 95.3828 124.492 95.3828C123.722 95.3828 123.098 96.0054 123.098 96.7734C123.098 97.5415 123.722 98.1641 124.492 98.1641Z" fill="#09090B"/>
<path d="M128.324 98.1641C129.094 98.1641 129.718 97.5415 129.718 96.7734C129.718 96.0054 129.094 95.3828 128.324 95.3828C127.555 95.3828 126.931 96.0054 126.931 96.7734C126.931 97.5415 127.555 98.1641 128.324 98.1641Z" fill="#09090B"/>
<path d="M66.7486 137.974C66.7486 138.166 66.9035 138.321 67.0964 138.321H126.8C126.992 138.321 127.147 138.166 127.147 137.974C127.147 137.781 126.992 137.627 126.8 137.627H67.0964C66.9035 137.627 66.7486 137.781 66.7486 137.974Z" fill="#09090B"/>
<path d="M84.9569 52.3783C86.228 51.3304 87.8001 51.1353 88.4684 51.9426C89.1366 52.7498 88.6479 54.2534 87.3763 55.3016C86.8741 55.7272 86.277 56.0266 85.635 56.1748L80.1935 60.5472L78.1916 57.9554L83.7686 53.9203C84.0356 53.319 84.4431 52.7902 84.9569 52.3783Z" fill="#FFA89E"/>
<path d="M53.5052 62.2435C53.5024 62.0501 53.5043 60.3634 54.7557 59.2974C56.1932 58.0728 58.2217 58.5684 58.9331 58.7423C60.5766 59.1439 60.7114 59.8473 62.2548 60.5702C65.1424 61.9225 61.5244 61.2303 63.2426 60.7967C63.8373 60.6466 72.3935 60.0545 74.5232 58.7465C78.6654 56.2026 81.4877 54.66 81.4877 54.66L83.3328 58.342C83.3328 58.342 80.6649 62.0436 76.91 64.7858C73.0584 67.5986 71.1326 69.005 68.2059 69.5484C67.9539 69.5952 61.7553 70.6513 56.7629 66.9295C55.6242 66.0806 53.5377 64.5252 53.5052 62.2435Z" fill="#D4D4D8"/>
<path d="M59.2286 52.8794C62.7783 52.8794 65.6558 50.0081 65.6558 46.4661C65.6558 42.9242 62.7783 40.0529 59.2286 40.0529C55.6789 40.0529 52.8013 42.9242 52.8013 46.4661C52.8013 50.0081 55.6789 52.8794 59.2286 52.8794Z" fill="#FFA89E"/>
<path d="M109.565 89.5529L102.945 82.7921L99.5286 86.3486L104.46 92.831L109.352 93.3892L109.565 89.5529Z" fill="#FFA89E"/>
<path d="M71.7686 76.8749C72.1558 76.907 73.3861 77.153 74.5621 76.5074C75.3646 76.0668 75.7762 75.4117 75.9153 75.2034C77.6399 72.6188 84.2596 68.5884 90.2005 68.3403C91.5459 68.2842 92.4315 68.4397 93.2364 68.8584C94.3777 69.452 94.8334 70.3024 96.2817 72.2944C97.0739 73.384 97.9505 74.4106 98.7523 75.4932C103.446 81.8317 105.226 82.3293 105.044 84.3614C104.842 86.616 102.405 88.755 100.786 88.5081C100.122 88.407 99.8655 87.9468 98.9793 87.0151C96.3809 84.2834 95.3058 84.7881 93.4559 82.6958C91.296 80.2529 91.5788 78.2274 90.4519 78.1492C89.4069 78.0766 88.9628 79.8046 86.7319 82.1C85.711 83.1503 84.9841 83.6322 82.7694 85.1652C74.145 91.1353 74.0074 91.5548 72.2669 92.031C71.5054 92.2393 66.1006 93.7178 64.1753 91.3649C61.1623 87.6829 68.2801 76.5857 71.7686 76.8749Z" fill="#09090B"/>
<path d="M107.541 91.0807C108.028 90.8625 108.597 90.6075 108.78 90.021C108.904 89.6241 108.833 89.1348 108.577 88.7967C108.281 88.4066 107.844 88.3551 107.861 88.2861C107.888 88.181 108.923 88.2221 110.058 88.6226C110.272 88.6982 111.243 89.0521 112.478 90.0141C113.467 90.7847 113.334 90.9392 113.955 91.3836C115.859 92.7477 117.645 91.6726 118.676 92.9519C119.073 93.4456 119.243 94.1466 119.076 94.7134C118.74 95.8516 117.105 96.2433 116.212 96.4455C114.06 96.9326 112.432 96.535 110.732 96.2491C104.949 95.2768 101.7 96.1623 101.265 94.8256C101.183 94.5726 101.317 94.5941 101.763 92.7376C102.203 90.9051 102.188 90.4019 102.563 90.2552C103.127 90.0343 103.506 91.039 104.927 91.3829C106.186 91.6876 107.226 91.222 107.541 91.0807Z" fill="#09090B"/>
<path d="M97.7968 111.67L96.1244 102.367L91.2957 103.395L91.7283 111.522L95.4617 114.725L97.7968 111.67Z" fill="#FFA89E"/>
<path d="M73.6571 80.002C73.9594 80.2454 74.839 81.1383 76.1754 81.263C77.0874 81.3482 77.7967 81.0367 78.0289 80.9422C80.9105 79.7699 88.6562 80.144 93.7116 83.2676C94.8565 83.975 95.5017 84.5999 95.9321 85.3973C96.5424 86.528 96.4409 87.4869 96.5183 89.9467C96.5606 91.2923 96.7082 92.6328 96.7624 93.9779C97.0794 101.853 98.2719 103.262 96.9778 104.841C95.542 106.594 92.3218 106.998 91.1205 105.886C90.6286 105.431 90.675 104.906 90.4661 103.639C89.8533 99.9226 88.6798 99.7379 88.3265 96.97C87.914 93.7385 89.2879 92.2209 88.3995 91.5248C87.5756 90.8792 86.2358 92.0602 83.098 92.7095C81.6622 93.0066 80.7895 92.998 78.0942 93.0256C67.5982 93.1332 67.2482 93.4033 65.5401 92.822C64.7927 92.5677 59.4885 90.7628 59.2195 87.7371C58.7986 83.0022 70.9333 77.808 73.6571 80.002Z" fill="#09090B"/>
<path d="M95.2626 111.8C95.7881 111.892 96.4027 112 96.8843 111.618C97.2101 111.359 97.4265 110.914 97.4048 110.491C97.3798 110.002 97.0468 109.715 97.1003 109.667C97.1817 109.595 98.0145 110.209 98.7287 111.177C98.8635 111.359 99.4675 112.196 99.948 113.684C100.333 114.876 100.136 114.929 100.399 115.645C101.207 117.84 103.29 117.952 103.423 119.587C103.474 120.219 103.22 120.894 102.763 121.269C101.844 122.023 100.271 121.431 99.418 121.098C97.3638 120.295 96.2401 119.054 94.994 117.865C90.7564 113.82 87.5697 112.732 87.9621 111.383C88.0364 111.127 88.1349 111.22 89.5486 109.933C90.944 108.664 91.2152 108.239 91.6079 108.328C92.1991 108.461 91.9471 109.505 92.9295 110.586C93.8001 111.543 94.922 111.74 95.2626 111.8Z" fill="#09090B"/>
<path d="M60.1048 47.6921C60.355 46.799 60.0408 46.4736 60.3611 46.0727C60.3611 46.0727 60.49 45.9114 61.6424 45.476C61.3024 43.5075 61.557 43.1747 61.557 43.1747C61.8504 42.7911 62.4382 42.6983 62.8383 42.7485C63.6846 42.8546 63.8344 43.618 64.3759 43.6009C65.1239 43.5772 66.0211 42.0831 65.7426 40.7881C65.5155 39.7318 64.536 38.9473 64.2905 39.0834C64.047 39.2184 63.1707 38.6232 62.8383 38.7425C62.6113 38.8239 61.543 38.7155 61.3007 38.8277C61.0362 38.9502 60.2785 39.7127 60.2061 39.6166C59.7028 38.949 59.7135 38.7159 59.4214 38.572C58.904 38.317 58.3414 38.7883 57.3713 39.2539C55.3754 40.2118 54.791 39.6404 53.869 40.4472C53.4033 40.8547 53.1536 41.6336 52.6731 43.1747C52.0012 45.3299 51.6653 46.4075 51.9898 47.4364C52.3207 48.4858 52.808 48.2574 53.5273 49.7378C54.3281 51.3857 54.0521 52.3436 54.8087 52.721C55.3934 53.0127 56.3331 52.8271 56.6879 52.2948C57.2954 51.3836 55.7253 50.151 56.2608 48.715C56.5896 47.8335 57.6037 47.1651 58.2255 47.3512C58.9287 47.5617 58.9805 48.8197 59.4214 48.8002C59.799 48.7835 60.0612 47.8478 60.1048 47.6921Z" fill="#09090B"/>
<path d="M55.2358 53.8291C56.5511 52.3576 61.9084 53.8806 62.4112 56.2157C62.618 57.1761 61.8545 57.5816 62.0695 58.6875C62.384 60.305 64.1647 60.1947 65.4864 61.8412C67.3628 64.1787 65.4297 66.4637 67.5365 70.3647C67.9867 71.1983 68.3661 71.9009 69.1595 72.5808C70.9801 74.1411 72.6744 73.606 73.6015 75.0527C74.2947 76.1345 74.0099 77.4678 73.9431 77.7802C73.6696 79.0609 72.928 79.373 72.4055 80.4225C71.5362 82.1685 72.5205 83.4504 72.5764 85.5366C72.6463 88.1468 71.2562 91.7649 68.4762 92.952C65.3529 94.2857 61.586 92.0768 59.7631 89.8836C58.6754 88.5748 58.3597 87.3676 57.8839 85.8775C55.7572 79.2179 54.5557 79.8203 52.9294 74.5412C51.0702 68.5063 50.7047 61.4362 52.9294 59.1989C53.2243 58.9024 54.0358 58.2169 54.5524 56.9828C55.2476 55.322 54.647 54.4878 55.2358 53.8291Z" fill="#D4D4D8"/>
<path d="M74.67 88.0835C75.6897 89.3763 75.8478 90.9492 75.0231 91.5966C74.1984 92.244 72.7036 91.7207 71.6837 90.4274C71.2692 89.9163 70.9833 89.3136 70.8501 88.6697L66.5988 83.1376L68.7955 81.4656L73.1533 86.8614C73.7494 87.142 74.2695 87.5611 74.67 88.0835Z" fill="#FFA89E"/>
<path d="M59.1002 59.4371C59.2894 59.3949 60.9446 59.0525 62.2458 60.0574C63.7406 61.2118 63.6682 63.2944 63.6428 64.0248C63.5842 65.7121 62.9215 65.9873 62.5273 67.6425C61.7897 70.739 63.1943 73.6168 63.9704 75.2066C64.239 75.757 65.102 77.4409 66.8198 79.2544C70.1608 82.7816 73.1418 84.6375 73.1418 84.6375L69.9394 87.4779C69.9394 87.4779 64.8382 85.9265 61.3817 82.8182C57.8361 79.6298 52.3836 68.3488 51.2533 65.6008C51.1559 65.3642 52.5348 69.2116 55.1675 63.5755C55.768 62.2899 56.8682 59.9344 59.1002 59.4371Z" fill="#D4D4D8"/>
<path d="M103.01 145.918C100.974 146.229 99.4852 147.529 99.6839 148.822C99.8827 150.114 101.694 150.909 103.73 150.598C104.545 150.484 105.321 150.178 105.993 149.704L114.601 148.276L114.027 144.881L105.438 146.094C104.654 145.842 103.822 145.782 103.01 145.918Z" fill="#FFA89E"/>
<path d="M140.103 135.335L136.765 142.402L119.986 148.038L106.063 148.779L105.714 145.442L120.804 142.294L136.288 134.993L140.103 135.335Z" fill="#D4D4D8"/>
<path d="M109.156 162.169L106.159 169.732L102.281 167.094L104.573 159.179L109.156 162.169Z" fill="#FFA89E"/>
<path d="M96.6406 159.355L88.7084 166.918L91.8813 170.26L99.9897 163.928L96.6406 159.355Z" fill="#FFA89E"/>
<path d="M141.59 134.731L141.502 134.115L139.474 130.158L132.776 131.916L134.01 137.369L141.59 134.731Z" fill="#FFA89E"/>
<path d="M138.769 161.113L138.975 163.755C138.975 163.755 139.827 174.833 132.952 175.712C126.078 176.591 123.081 177.471 119.027 170.611L112.681 159.355L108.975 163.755L104.044 159.882C104.044 159.882 107.569 146.163 110.39 145.635C110.742 145.57 111.095 145.537 111.442 145.529C113.777 145.481 115.978 146.62 117.375 148.488L125.373 159.179L128.281 157.86L138.769 161.113Z" fill="#09090B"/>
<path d="M100.695 169.38L102.281 166.39L106.864 169.556C106.864 169.556 107.922 173.425 106.336 173.953C104.749 174.481 100.342 173.777 100.342 173.777C100.342 173.777 92.2338 175.536 92.0576 173.953C91.8813 172.37 95.7593 172.018 95.7593 172.018L100.695 169.38Z" fill="#09090B"/>
<path d="M117.969 167.269L105.719 159.567L99.4609 165.159L95.2304 160.234C95.2304 160.234 102.986 148.801 105.278 148.274C107.569 147.746 111.271 147.394 111.271 147.394L122.552 157.772L117.969 167.269Z" fill="#09090B"/>
<path d="M88.5321 166.214L92.5864 170.611L92.0517 171.068C92.0517 171.068 90.9999 175.639 88.5321 174.092C86.0643 172.546 85.8881 172.194 85.8881 172.194C85.8881 172.194 78.8372 173.777 78.1322 170.963C77.4271 168.149 79.366 168.677 79.366 168.677L81.1267 169.732L88.5321 166.214Z" fill="#09090B"/>
<path d="M134.891 133.851C138.007 133.851 140.532 131.331 140.532 128.223C140.532 125.114 138.007 122.594 134.891 122.594C131.776 122.594 129.251 125.114 129.251 128.223C129.251 131.331 131.776 133.851 134.891 133.851Z" fill="#FFA89E"/>
<path d="M133.569 136.226L141.678 133.763C141.678 133.763 144.851 141.15 144.322 144.492C143.793 147.834 138.975 163.755 138.975 163.755L128.281 157.86C128.281 157.86 128.105 154.342 127.576 152.759C127.047 151.176 125.373 146.339 129.074 142.294C132.776 138.248 133.569 136.226 133.569 136.226Z" fill="#D4D4D8"/>
<path d="M115.723 173.158C114.404 174.736 114.15 176.694 115.156 177.532C116.162 178.37 118.047 177.77 119.367 176.192C119.903 175.568 120.282 174.826 120.471 174.027L125.978 167.273L123.295 165.107L117.661 171.687C116.906 172.016 116.242 172.521 115.723 173.158Z" fill="#FFA89E"/>
<path d="M139.789 139.774L141.705 147.349L132.325 162.332L122.749 171.935L119.646 169.365L129.303 157.375L136.623 141.927L139.789 139.774Z" fill="#D4D4D8"/>
<path d="M129.691 127.255C131.138 127.252 131.22 127.262 131.454 127.255C133.248 127.208 133.718 126.504 134.627 126.552C136.25 126.638 134.108 134.758 133.217 138.512C132.343 142.194 135.296 145.493 135.508 145.723C138.506 148.976 143.771 149.571 144.674 148.186C145.406 147.065 142.814 145.36 143.441 142.909C144.053 140.514 146.881 140.769 147.671 138.512C148.499 136.149 145.717 134.957 143.969 129.19C142.966 125.878 143.143 125.261 142.207 123.21C139.703 117.727 127.432 120.062 128.81 125.145C129.077 126.128 128.367 127.259 129.691 127.255Z" fill="#09090B"/>
<path d="M147.703 60.4395H88.4209C86.7444 60.4395 85.3805 59.0785 85.3805 57.4058V25.9838C85.3805 24.311 86.7444 22.95 88.4209 22.95H147.703C149.38 22.95 150.744 24.311 150.744 25.9838V57.4058C150.744 59.0785 149.38 60.4395 147.703 60.4395Z" fill="white"/>
<path d="M147.703 60.4395H88.4209C86.7444 60.4395 85.3805 59.0785 85.3805 57.4058V25.9838C85.3805 24.311 86.7444 22.95 88.4209 22.95H147.703C149.38 22.95 150.744 24.311 150.744 25.9838V57.4058C150.744 59.0785 149.38 60.4395 147.703 60.4395ZM88.4209 23.4566C87.0244 23.4566 85.8883 24.5903 85.8883 25.9838V57.4058C85.8883 58.7992 87.0244 59.9329 88.4209 59.9329H147.703C149.1 59.9329 150.236 58.7992 150.236 57.4058V25.9838C150.236 24.5903 149.1 23.4566 147.703 23.4566H88.4209Z" fill="#09090B"/>
<path d="M143.128 26.7496C143.549 26.7496 143.89 26.4094 143.89 25.9897C143.89 25.57 143.549 25.2298 143.128 25.2298C142.707 25.2298 142.366 25.57 142.366 25.9897C142.366 26.4094 142.707 26.7496 143.128 26.7496Z" fill="#09090B"/>
<path d="M145.159 26.7496C145.579 26.7496 145.92 26.4094 145.92 25.9897C145.92 25.57 145.579 25.2298 145.159 25.2298C144.738 25.2298 144.397 25.57 144.397 25.9897C144.397 26.4094 144.738 26.7496 145.159 26.7496Z" fill="#09090B"/>
<path d="M147.19 26.7496C147.61 26.7496 147.951 26.4094 147.951 25.9897C147.951 25.57 147.61 25.2298 147.19 25.2298C146.769 25.2298 146.428 25.57 146.428 25.9897C146.428 26.4094 146.769 26.7496 147.19 26.7496Z" fill="#09090B"/>
<path d="M89.6962 38.2751C89.4862 38.2751 89.3154 38.4456 89.3154 38.6551C89.3154 38.7572 89.3549 38.8517 89.4267 38.9215C89.4991 38.9955 89.5939 39.035 89.6962 39.035H146.682C146.892 39.035 147.063 38.8646 147.063 38.6551C147.063 38.5529 147.023 38.4584 146.952 38.3887C146.879 38.3147 146.784 38.2751 146.682 38.2751H89.6962Z" fill="#D4D4D8"/>
<path d="M139.574 38.1485V39.1617H89.6962C89.5565 39.1617 89.4296 39.106 89.3382 39.0122C89.2443 38.9211 89.1884 38.7944 89.1884 38.6551C89.1884 38.3764 89.4169 38.1485 89.6962 38.1485H139.574Z" fill="#E12913"/>
<path d="M146.047 36.2487H140.97C140.41 36.2487 139.955 35.7942 139.955 35.2354C139.955 34.6766 140.41 34.2222 140.97 34.2222H146.047C146.607 34.2222 147.063 34.6766 147.063 35.2354C147.063 35.7942 146.607 36.2487 146.047 36.2487Z" fill="#D4D4D8"/>
<path d="M112.791 30.9292H90.077C89.5171 30.9292 89.0615 30.4748 89.0615 29.916C89.0615 29.3572 89.5171 28.9027 90.077 28.9027H112.791C113.351 28.9027 113.807 29.3572 113.807 29.916C113.807 30.4748 113.351 30.9292 112.791 30.9292Z" fill="#D4D4D8"/>
<path d="M89.6962 49.674C89.4862 49.674 89.3154 49.8444 89.3154 50.0539C89.3154 50.1561 89.3549 50.2506 89.4267 50.3203C89.4991 50.3943 89.5939 50.4339 89.6962 50.4339H146.682C146.892 50.4339 147.063 50.2634 147.063 50.0539C147.063 49.9517 147.023 49.8573 146.952 49.7875C146.879 49.7135 146.784 49.674 146.682 49.674H89.6962Z" fill="#D4D4D8"/>
<path d="M120.027 49.5473V50.5605H89.6962C89.5565 50.5605 89.4296 50.5048 89.3382 50.4111C89.2443 50.3199 89.1884 50.1932 89.1884 50.0539C89.1884 49.7753 89.4169 49.5473 89.6962 49.5473H120.027Z" fill="#E12913"/>
<path d="M146.047 47.6475H140.97C140.41 47.6475 139.955 47.1931 139.955 46.6343C139.955 46.0755 140.41 45.621 140.97 45.621H146.047C146.607 45.621 147.063 46.0755 147.063 46.6343C147.063 47.1931 146.607 47.6475 146.047 47.6475Z" fill="#D4D4D8"/>
</svg>
