<svg width="200" height="200" viewBox="0 0 200 200" fill="none" xmlns="http://www.w3.org/2000/svg">
<g clip-path="url(#clip0_4516_47947)">
<path d="M189.612 157.846H10.3884C9.19928 157.846 8.23198 156.878 8.23198 155.687V44.8906C8.23198 43.7004 9.19928 42.7322 10.3884 42.7322H189.612C190.801 42.7322 191.768 43.7004 191.768 44.8906V155.687C191.768 156.878 190.801 157.846 189.612 157.846Z" fill="white"/>
<path d="M189.612 157.846H10.3884C9.19928 157.846 8.23198 156.878 8.23198 155.687V44.8906C8.23198 43.7004 9.19928 42.7322 10.3884 42.7322H189.612C190.801 42.7322 191.768 43.7004 191.768 44.8906V155.687C191.768 156.878 190.801 157.846 189.612 157.846Z" stroke="#D4D4D8" stroke-width="0.666667" stroke-miterlimit="10"/>
<path d="M22.3686 52.325H14.2221C13.0329 52.325 12.0656 51.3568 12.0656 50.1666V49.2073C12.0656 48.0171 13.0329 47.049 14.2221 47.049H22.3686C23.5577 47.049 24.525 48.0171 24.525 49.2073V50.1666C24.525 51.3568 23.5577 52.325 22.3686 52.325Z" fill="#D4D4D8"/>
<path d="M166.61 52.325H161.818C160.628 52.325 159.661 51.3568 159.661 50.1666V49.2073C159.661 48.0171 160.628 47.049 161.818 47.049H166.61C167.799 47.049 168.766 48.0171 168.766 49.2073V50.1666C168.766 51.3568 167.799 52.325 166.61 52.325Z" fill="#D4D4D8"/>
<path d="M134.503 81.1034C133.842 81.1034 133.305 81.6413 133.305 82.3025V83.2617C133.305 83.9229 133.842 84.4608 134.503 84.4608H162.297C162.958 84.4608 163.495 83.9229 163.495 83.2617V82.3025C163.495 81.6413 162.958 81.1034 162.297 81.1034H134.503Z" fill="#D4D4D8"/>
<path d="M125.398 130.027H14.2221C13.0329 130.027 12.0656 129.058 12.0656 127.868V57.3612C12.0656 56.171 13.0329 55.2028 14.2221 55.2028H125.398C126.587 55.2028 127.554 56.171 127.554 57.3612V127.868C127.554 129.058 126.587 130.027 125.398 130.027Z" fill="#D4D4D8"/>
<path d="M125.877 153.529H74.6021C73.4129 153.529 72.4456 152.561 72.4456 151.371V134.583C72.4456 133.393 73.4129 132.425 74.6021 132.425H125.877C127.066 132.425 128.034 133.393 128.034 134.583V151.371C128.034 152.561 127.066 153.529 125.877 153.529Z" fill="#D4D4D8"/>
<path d="M65.2912 153.411H14.0161C12.827 153.411 11.8597 152.443 11.8597 151.253V134.466C11.8597 133.275 12.827 132.307 14.0161 132.307H65.2912C66.4804 132.307 67.4477 133.275 67.4477 134.466V151.253C67.4477 152.443 66.4804 153.411 65.2912 153.411Z" fill="#D4D4D8"/>
<path d="M185.778 132.425C186.967 132.425 187.934 133.393 187.934 134.583V151.371C187.934 152.561 186.967 153.529 185.778 153.529H134.503C133.314 153.529 132.346 152.561 132.346 151.371V134.583C132.346 133.393 133.314 132.425 134.503 132.425" fill="#D4D4D8"/>
<path d="M134.503 88.7776C133.842 88.7776 133.305 89.3155 133.305 89.9767C133.305 90.6378 133.842 91.1758 134.503 91.1758H177.152C177.813 91.1758 178.35 90.6378 178.35 89.9767C178.35 89.3155 177.813 88.7776 177.152 88.7776H134.503Z" fill="#D4D4D8"/>
<path d="M134.503 95.4926C133.842 95.4926 133.305 96.0305 133.305 96.6917C133.305 97.3528 133.842 97.8908 134.503 97.8908H177.152C177.813 97.8908 178.35 97.3528 178.35 96.6917C178.35 96.0305 177.813 95.4926 177.152 95.4926H134.503Z" fill="#D4D4D8"/>
<path d="M134.503 101.728C133.842 101.728 133.305 102.266 133.305 102.927C133.305 103.588 133.842 104.126 134.503 104.126H162.297C162.958 104.126 163.495 103.588 163.495 102.927C163.495 102.266 162.958 101.728 162.297 101.728" fill="#D4D4D8"/>
<path d="M176.194 52.325H171.402C170.213 52.325 169.245 51.3568 169.245 50.1666V49.2073C169.245 48.0171 170.213 47.049 171.402 47.049H176.194C177.383 47.049 178.35 48.0171 178.35 49.2073V50.1666C178.35 51.3568 177.383 52.325 176.194 52.325Z" fill="#D4D4D8"/>
<path d="M185.778 52.325H180.986C179.797 52.325 178.829 51.3568 178.829 50.1666V49.2073C178.829 48.0171 179.797 47.049 180.986 47.049H185.778C186.967 47.049 187.934 48.0171 187.934 49.2073V50.1666C187.934 51.3568 186.967 52.325 185.778 52.325Z" fill="#D4D4D8"/>
<path d="M76.9398 63.5831C76.9398 61.6065 78.5406 60.0042 80.5154 60.0042C82.4902 60.0042 84.091 61.6065 84.091 63.5831C84.091 65.0838 83.1677 66.368 81.8591 66.8997C82.2799 67.8504 82.8925 68.6314 82.8925 68.6314L79.3687 71.5706L78.6199 66.6173C77.6111 65.9846 76.9398 64.8626 76.9398 63.5831Z" fill="#FFA89E"/>
<path d="M70.6728 87.3206L72.2412 84.227L74.0458 85.1436L72.4774 88.2372C72.6449 88.7247 72.6077 89.3228 72.3283 89.874C71.8394 90.8383 70.7967 91.2917 69.9994 90.8867C69.2021 90.4818 68.952 89.3717 69.4409 88.4074C69.7204 87.8563 70.1808 87.4731 70.6728 87.3206Z" fill="#FFA89E"/>
<path d="M81.3174 73.3335L73.3938 88.1564L70.2957 86.4973L77.2368 71.3092" fill="#E12913"/>
<path d="M76.9891 76.8073L74.8295 86.8466L84.2416 87.1753C84.2416 87.1753 83.0084 80.2031 83.4462 78.9981L76.9891 76.8073Z" fill="#FFA89E"/>
<path d="M91.4796 115.48L89.7092 116.786L91.0144 118.558L92.7847 117.252L91.4796 115.48Z" fill="#FFA89E"/>
<path d="M93.6697 119.087L89.9066 121.864C89.585 122.101 89.2075 122.266 88.8149 122.34L87.8753 122.518C87.681 122.555 87.4797 122.476 87.3623 122.317C87.2247 122.13 87.2286 121.872 87.3718 121.689L88.5111 120.237L90.0108 117.142L90.0194 117.15C90.2362 117.348 90.5654 117.647 90.5901 117.661C91.0533 117.764 91.4089 117.706 91.6473 117.49C92.0631 117.113 91.9793 116.373 91.9784 116.366L91.9777 116.36L91.9826 116.357C92.0959 116.29 92.205 116.275 92.3069 116.312C92.5234 116.392 92.6364 116.676 92.6526 116.719C92.8639 116.749 93.4135 117.38 93.4577 117.431C93.7739 117.488 93.9916 117.607 94.1047 117.784C94.2036 117.939 94.2228 118.136 94.1617 118.37C94.0883 118.653 93.9135 118.907 93.6697 119.087Z" fill="#09090B"/>
<path d="M76.2983 120.651H74.0989V122.852H76.2983V120.651Z" fill="#FFA89E"/>
<path d="M75.9229 124.854H71.2477C70.8481 124.854 70.4466 124.763 70.0864 124.59L69.2245 124.175C69.0463 124.089 68.9312 123.906 68.9312 123.708C68.9312 123.476 69.0873 123.271 69.3107 123.209L71.0889 122.716L74.1308 121.116L74.1331 121.127C74.19 121.416 74.2781 121.851 74.2893 121.878C74.6013 122.235 74.9217 122.4 75.2418 122.368C75.8001 122.311 76.1712 121.666 76.1749 121.659L76.1777 121.654L76.1834 121.655C76.3142 121.669 76.4109 121.721 76.4708 121.812C76.5982 122.004 76.5205 122.3 76.5077 122.345C76.6603 122.494 76.7287 123.328 76.734 123.396C76.9545 123.63 77.0593 123.854 77.0454 124.064C77.0333 124.247 76.9317 124.418 76.7436 124.57C76.5173 124.753 76.2258 124.854 75.9229 124.854Z" fill="#09090B"/>
<path d="M85.2725 83.8283H74.7314L73.0512 121.239H76.7634L79.1618 105.33L88.7862 118.057L92.2998 114.876L85.2725 105.33V83.8283Z" fill="#09090B"/>
<path d="M78.7694 68.7723L82.8188 67.7864L85.4144 71.1129C86.0327 72.3753 86.1303 73.8305 85.6861 75.1643L83.5338 81.6272C83.5338 81.6272 76.9672 81.5176 75.5445 77.6837L75.1366 76.8332C74.5791 75.6706 74.7055 74.2954 75.4657 73.2542L78.7694 68.7723Z" fill="#E12913"/>
<path d="M85.4465 65.9587C85.4465 65.9587 85.2732 67.2179 83.6853 67.3042L82.0975 67.3905C82.0975 67.3905 82.9692 63.449 81.8484 64.197C80.7275 64.945 77.7386 61.8091 77.7386 61.8091L76.8567 63.4647C76.8567 63.4647 74.7497 62.701 77.0848 60.8309C77.0848 60.8309 79.8709 58.675 82.8287 59.9696C85.7865 61.2643 85.4465 65.9587 85.4465 65.9587Z" fill="#09090B"/>
<path d="M83.0797 90.1392L83.0045 86.6709L85.0277 86.627L85.1029 90.0953C85.4804 90.446 85.7295 90.991 85.7429 91.6088C85.7664 92.69 85.0607 93.5821 84.1668 93.6015C83.2729 93.6209 82.5293 92.7603 82.5058 91.6791C82.4924 91.0613 82.7178 90.506 83.0797 90.1392Z" fill="#FFA89E"/>
<path d="M85.8728 72.7802V89.5913H82.3592L81.3207 72.9221" fill="#E12913"/>
<path d="M44.2419 124.783H48.748H52.7532H52.9142H56.4402H80.5871H86.3332H101.677" stroke="#09090B" stroke-width="0.5" stroke-miterlimit="10"/>
<path d="M71.2567 89.7062H29.856C29.0482 89.7062 28.3912 89.0485 28.3912 88.2401V66.5116C28.3912 65.7032 29.0482 65.0454 29.856 65.0454H71.2567C72.0644 65.0454 72.7215 65.7032 72.7215 66.5116V88.2401C72.7215 89.0485 72.0644 89.7062 71.2567 89.7062Z" fill="white"/>
<path d="M49.0606 90.5649L49.05 90.5543L49.0394 90.5649C48.5243 90.0497 47.6894 90.0503 47.1746 90.566C46.6598 91.0818 46.6495 91.9279 47.1646 92.4431L49.0513 94.3296L50.9367 92.4408C51.4515 91.9249 51.4407 91.0789 50.9257 90.5637C50.4105 90.0484 49.5756 90.0491 49.0608 90.5647L49.0606 90.5649Z" fill="#FFA89E"/>
</g>
<defs>
<clipPath id="clip0_4516_47947">
<rect width="184" height="184" fill="white" transform="translate(8 8)"/>
</clipPath>
</defs>
</svg>
