<svg width="200" height="200" viewBox="0 0 200 200" fill="none" xmlns="http://www.w3.org/2000/svg">
<g clip-path="url(#clip0_4516_47944)">
<path d="M191.686 39.3637H8.31396V161.089H191.686V39.3637Z" fill="white"/>
<path d="M191.686 39.3637H8.31396V161.089H191.686V39.3637Z" stroke="#D4D4D8" stroke-width="0.666667" stroke-miterlimit="10"/>
<path d="M34.8464 54.8931H17.5768C16.2782 54.8931 15.2219 53.8377 15.2219 52.5402C15.2219 51.2427 16.2782 50.1873 17.5768 50.1873H34.8464C36.145 50.1873 37.2014 51.2427 37.2014 52.5402C37.2014 53.8377 36.145 54.8931 34.8464 54.8931Z" fill="#D4D4D8"/>
<path d="M47.4062 74.9716H17.5768C16.2782 74.9716 15.2219 73.9161 15.2219 72.6186C15.2219 71.3211 16.2782 70.2657 17.5768 70.2657H47.4062C48.7048 70.2657 49.7611 71.3211 49.7611 72.6186C49.7611 73.9161 48.7048 74.9716 47.4062 74.9716Z" fill="#D4D4D8"/>
<path d="M63.5768 83.7559H17.1058C16.0669 83.7559 15.2219 82.9115 15.2219 81.8735C15.2219 80.8355 16.0669 79.9912 17.1058 79.9912H63.5768C64.6157 79.9912 65.4608 80.8355 65.4608 81.8735C65.4608 82.9115 64.6157 83.7559 63.5768 83.7559Z" fill="#D4D4D8"/>
<path d="M63.5768 89.403H17.1058C16.0669 89.403 15.2219 88.5586 15.2219 87.5206C15.2219 86.4826 16.0669 85.6382 17.1058 85.6382H63.5768C64.6157 85.6382 65.4608 86.4826 65.4608 87.5206C65.4608 88.5586 64.6157 89.403 63.5768 89.403Z" fill="#D4D4D8"/>
<path d="M64.0478 145.874H16.6348C15.8557 145.874 15.2219 145.24 15.2219 144.462C15.2219 143.683 15.8557 143.05 16.6348 143.05H64.0478C64.827 143.05 65.4608 143.683 65.4608 144.462C65.4608 145.24 64.827 145.874 64.0478 145.874Z" fill="#D4D4D8"/>
<path d="M64.0478 151.521H16.6348C15.8557 151.521 15.2219 150.887 15.2219 150.109C15.2219 149.33 15.8557 148.697 16.6348 148.697H64.0478C64.827 148.697 65.4608 149.33 65.4608 150.109C65.4608 150.887 64.827 151.521 64.0478 151.521Z" fill="#D4D4D8"/>
<path d="M153.85 53.6382H146C144.701 53.6382 143.645 52.5828 143.645 51.2853C143.645 49.9878 144.701 48.9323 146 48.9323H153.85C155.148 48.9323 156.205 49.9878 156.205 51.2853C156.205 52.5828 155.148 53.6382 153.85 53.6382Z" fill="#D4D4D8"/>
<path d="M25.4266 98.501H17.5768C16.2782 98.501 15.2219 97.4455 15.2219 96.148C15.2219 94.8506 16.2782 93.7951 17.5768 93.7951H25.4266C26.7252 93.7951 27.7816 94.8506 27.7816 96.148C27.7816 97.4455 26.7252 98.501 25.4266 98.501Z" fill="#D4D4D8"/>
<path d="M167.98 53.6382H160.13C158.831 53.6382 157.775 52.5828 157.775 51.2853C157.775 49.9878 158.831 48.9323 160.13 48.9323H167.98C169.278 48.9323 170.334 49.9878 170.334 51.2853C170.334 52.5828 169.278 53.6382 167.98 53.6382Z" fill="#D4D4D8"/>
<path d="M182.109 53.6382H174.259C172.961 53.6382 171.904 52.5828 171.904 51.2853C171.904 49.9878 172.961 48.9323 174.259 48.9323H182.109C183.408 48.9323 184.464 49.9878 184.464 51.2853C184.464 52.5828 183.408 53.6382 182.109 53.6382Z" fill="#D4D4D8"/>
<path d="M181.706 121.089H89.8841C88.3635 121.089 87.1263 119.853 87.1263 118.334V66.1193C87.1263 64.6 88.3635 63.3637 89.8841 63.3637H181.706C183.227 63.3637 184.464 64.6 184.464 66.1193V118.334C184.464 119.853 183.227 121.089 181.706 121.089Z" fill="#E12913"/>
<path d="M40.3413 141.168C37.8309 141.168 35.7884 139.127 35.7884 136.619C35.7884 134.11 37.8309 132.07 40.3413 132.07C42.8517 132.07 44.8942 134.11 44.8942 136.619C44.8942 139.127 42.8517 141.168 40.3413 141.168Z" fill="#D4D4D8"/>
<path d="M123.706 145.874H76.2935C75.5144 145.874 74.8806 145.24 74.8806 144.462C74.8806 143.683 75.5144 143.05 76.2935 143.05H123.706C124.486 143.05 125.119 143.683 125.119 144.462C125.119 145.24 124.486 145.874 123.706 145.874Z" fill="#D4D4D8"/>
<path d="M123.706 151.521H76.2935C75.5144 151.521 74.8806 150.887 74.8806 150.109C74.8806 149.33 75.5144 148.697 76.2935 148.697H123.706C124.486 148.697 125.119 149.33 125.119 150.109C125.119 150.887 124.486 151.521 123.706 151.521Z" fill="#D4D4D8"/>
<path d="M100 141.168C97.4896 141.168 95.4471 139.127 95.4471 136.619C95.4471 134.11 97.4896 132.07 100 132.07C102.51 132.07 104.553 134.11 104.553 136.619C104.553 139.127 102.51 141.168 100 141.168Z" fill="#D4D4D8"/>
<path d="M183.365 145.874H135.952C135.173 145.874 134.539 145.24 134.539 144.462C134.539 143.683 135.173 143.05 135.952 143.05H183.365C184.144 143.05 184.778 143.683 184.778 144.462C184.778 145.24 184.144 145.874 183.365 145.874Z" fill="#D4D4D8"/>
<path d="M183.365 151.521H135.952C135.173 151.521 134.539 150.887 134.539 150.109C134.539 149.33 135.173 148.697 135.952 148.697H183.365C184.144 148.697 184.778 149.33 184.778 150.109C184.778 150.887 184.144 151.521 183.365 151.521Z" fill="#D4D4D8"/>
<path d="M159.659 141.168C157.148 141.168 155.106 139.127 155.106 136.619C155.106 134.11 157.148 132.07 159.659 132.07C162.169 132.07 164.212 134.11 164.212 136.619C164.212 139.127 162.169 141.168 159.659 141.168Z" fill="#D4D4D8"/>
</g>
<defs>
<clipPath id="clip0_4516_47944">
<rect width="184" height="184" fill="white" transform="translate(8 8)"/>
</clipPath>
</defs>
</svg>
