<svg width="144" height="40" viewBox="0 0 144 40" fill="none" xmlns="http://www.w3.org/2000/svg">
<g clip-path="url(#clip0_9704_21157)">
<path d="M38.771 19.6769C38.5319 18.9738 38.1066 18.2966 37.5491 17.7496C37.5491 17.6977 37.5491 17.6453 37.4962 17.5935C38.0273 17.8279 38.5325 18.1924 38.9044 18.6352C38.9044 17.8803 38.6653 17.1248 38.2135 16.5259C37.7618 15.927 37.1508 15.4324 36.4599 15.0938C36.8582 15.1197 37.2571 15.198 37.629 15.354C38.0009 15.5101 38.3463 15.6926 38.6653 15.9011C38.4791 15.0678 38.0279 14.3388 37.3635 13.7659C36.726 13.2188 35.9024 12.8543 35.0523 12.776C35.876 12.6199 36.7525 12.776 37.4698 13.2188C37.0445 12.4639 36.4335 11.8644 35.6897 11.4221C34.946 11.0052 34.0959 10.7708 33.2188 10.7973H33.1924C34.016 10.6148 34.8661 10.6148 35.6633 10.7973C35.1322 10.3027 34.5207 9.93818 33.8568 9.67731C33.1924 9.44294 32.4751 9.3128 31.7578 9.33871C32.1297 9.02602 32.5814 8.84406 33.0596 8.79165C33.6442 8.71333 34.2287 8.84347 34.7069 9.15616C33.6706 8.08854 32.9004 7.69753 31.5986 7.77585C30.9612 7.85417 30.3766 8.06204 29.8714 8.40064C30.695 7.54147 31.306 6.49976 31.5986 5.35382C31.4658 5.53637 31.0675 6.03102 30.9876 6.13525C30.4565 6.73413 29.7657 7.17696 28.9949 7.41133C28.2247 7.6198 27.7994 7.51556 27.0022 7.72403L26.9493 7.6722C28.2512 6.21357 29.7921 4.96398 31.4922 4C29.4995 4.52056 27.6402 5.48455 26.0458 6.78654C27.1085 5.74483 28.304 4.83325 29.6323 4.13014H29.4461C29.3932 4.13014 29.3397 4.15605 29.2598 4.18196C27.4269 4.72902 25.6997 5.6406 24.2387 6.86427C23.3087 7.61921 22.4851 8.50487 21.7678 9.44235C21.7149 9.49417 21.4758 9.44235 21.4488 9.44235C21.2097 9.20798 21.3424 8.55669 21.2625 8.71333C21.0763 9.05193 20.8108 10.4322 20.5717 10.6925C19.6417 11.6559 18.9508 12.2548 17.9944 13.2188C17.8082 13.4013 17.8082 13.6875 17.7817 13.896L17.6225 14.7552L18.5261 14.0261C18.6589 13.9219 18.8715 13.7399 19.0572 13.6092C19.0307 13.2965 19.1635 13.1405 19.6681 13.0621C19.5882 13.2965 19.5882 13.5568 19.4555 13.6869C19.0037 14.1816 18.4192 14.5461 17.8082 14.7805C17.649 14.8323 17.4892 14.8847 17.3564 15.0148C16.9311 15.3794 16.5328 15.7439 16.1074 16.1084C15.6821 16.447 15.6292 16.3687 15.4965 15.9782C15.47 15.9264 15.47 15.8481 15.4965 15.7957C14.9918 16.447 14.9918 17.905 15.4965 18.1918L15.8155 17.2284C16.2138 17.4628 16.1609 17.3845 15.8954 17.5929C15.789 17.6972 15.7091 17.8014 15.6563 17.9315C15.6298 18.0876 15.6827 18.2701 15.789 18.4003C15.9482 18.5045 16.108 18.5828 16.2937 18.6346C16.4529 18.4003 16.5592 18.1659 16.719 17.9574C16.8782 17.7231 17.038 17.5146 17.1972 17.3061C17.3564 17.1236 17.5426 16.9675 17.7018 16.7856L17.7547 16.8374C17.5955 17.02 17.4357 17.2019 17.2765 17.4104C16.8512 18.0352 16.8247 17.8791 17.3294 18.3738C17.3558 18.3997 17.3822 18.4256 17.3822 18.4521C17.2495 18.4521 17.1431 18.4262 17.0368 18.3738C16.8241 18.2177 16.7178 18.3738 16.6385 18.5039C16.5322 18.6341 16.5057 18.8166 16.7184 18.9208C17.1702 19.1552 17.7012 19.207 18.2065 19.1034C18.3657 19.0775 18.5255 19.0251 18.6847 18.9473L18.472 18.7913C17.7283 18.2183 17.8875 17.6712 18.764 17.2808C19.8532 16.7603 21.0487 16.4217 22.2442 16.265C22.7224 16.1867 23.227 16.1349 23.7323 16.0825C23.7323 15.9782 23.6794 15.8999 23.6524 15.8481C23.4661 15.4053 23.1213 15.3794 23.6524 15.3534H24.476C24.476 15.3534 25.937 15.4318 25.937 15.4053V15.3794H25.9899V15.2751C25.9899 15.2492 25.9635 15.2492 25.9635 15.2233C25.6979 14.6762 25.5916 14.0774 25.6445 13.5044C25.6709 13.3218 25.6973 13.114 25.7244 12.9314C25.7772 12.723 25.6445 12.723 25.4853 12.7489C25.2197 12.8007 25.5916 12.5928 25.6445 12.5404V12.4621C25.6709 12.4103 25.6709 12.3579 25.6445 12.306C25.5117 11.9933 25.4054 11.6812 25.3525 11.3426C25.2996 11.1342 25.2996 10.9257 25.3525 10.7438C25.4054 10.5353 25.5117 10.3792 25.6715 10.2232C25.5916 10.4057 25.5123 10.5618 25.4588 10.7703C25.406 11.239 25.5387 11.6818 25.8307 12.0463C25.9635 12.2289 26.0434 12.4368 26.0698 12.6452C26.0962 12.8537 26.0698 13.0881 25.9899 13.2965C25.8836 13.6092 25.8836 13.9737 25.9899 14.2864C26.2026 14.1822 26.4417 14.1039 26.6808 14.078C27.8234 14.0261 28.9655 14.3641 29.8954 15.0154C31.1973 16.0312 32.0738 17.5158 32.3664 19.1299C32.4192 19.3643 32.4463 19.5727 32.4463 19.8071V21.3435C33.0572 19.3643 32.9509 17.229 32.1807 15.2757C32.4198 15.7445 32.6061 16.2391 32.7653 16.7344C33.217 17.9586 33.3498 19.2606 33.1906 20.5367C33.0314 21.8128 32.5796 23.037 31.8623 24.1306C30.0024 27.0214 27.1067 28.0107 23.7323 28.0107C25.8842 28.8698 28.3022 28.9222 30.507 28.1408C32.048 27.6202 33.4297 26.7087 34.5189 25.4844C33.9608 27.0208 33.1107 28.427 31.968 29.5988C30.8254 30.7707 29.4443 31.6823 27.9033 32.3071C26.3624 32.906 24.7151 33.1927 23.0678 33.1144C21.4205 33.0361 19.7997 32.6198 18.3122 31.8901H18.3387C16.4258 30.9527 14.805 29.494 13.6894 27.7233C12.5467 25.9526 11.9622 23.895 11.9358 21.7857C11.9093 19.6764 12.4939 17.6188 13.6095 15.8222C14.7251 14.0255 16.2931 12.5669 18.2059 11.6035C18.3651 10.1714 20.0124 8.42655 22.085 7.48906C19.3221 7.74935 16.7184 8.79106 14.5395 10.4841C12.3611 12.1771 10.7403 14.4166 9.81029 16.9687C8.90675 19.5209 8.74755 22.3074 9.38495 24.9379C10.0224 27.5684 11.4041 29.9899 13.3968 31.8913L13.4232 31.9172C15.3096 33.7404 17.6207 35.0165 20.198 35.6154C22.7752 36.2142 25.4853 36.11 28.0091 35.3292C30.5328 34.5218 32.7911 33.0638 34.5447 31.1105C36.2983 29.1572 37.4404 26.7617 37.8921 24.183C37.945 24.0788 37.9985 24.0269 38.1841 24.1047V23.0111L38.264 22.9852L38.6094 23.5058C38.6893 22.8286 38.6623 22.1255 38.5295 21.4483C38.7158 21.6567 38.8215 21.8128 38.9278 21.9429C39.0606 21.188 39.0077 20.4066 38.7686 19.6775L38.771 19.6769Z" fill="url(#paint0_linear_9704_21157)"/>
<path d="M58.0842 30.2547C56.7329 30.2547 55.4168 30.0118 54.1343 29.5621C52.9561 29.1462 51.8821 28.4881 50.9467 27.6217C50.0458 26.7905 49.2835 25.7854 48.7641 24.6769C48.2448 23.4986 47.9674 22.217 48.0019 20.9009C47.9674 19.6537 48.2448 18.441 48.7297 17.2981C49.2146 16.1551 49.9768 15.15 50.9122 14.3188C51.8476 13.4876 52.9216 12.864 54.0999 12.448C55.3815 11.9976 56.6984 11.7555 58.0498 11.79C59.4011 11.79 60.7172 11.9976 61.9996 12.448C63.1779 12.864 64.2519 13.4876 65.2218 14.3188C66.1227 15.1155 66.8504 16.0854 67.3354 17.1594C67.8548 18.3024 68.1321 19.5495 68.1321 20.7975C68.1321 21.6984 68.0279 22.5641 67.7858 23.4305C67.3354 25.0239 66.4689 26.4795 65.2218 27.588C64.5982 28.1074 63.9049 28.5578 63.1779 28.9049C62.4156 29.2856 61.5844 29.5974 60.7525 29.7713C59.8516 30.0831 58.9859 30.2218 58.085 30.2562L58.0842 30.2547ZM58.0842 28.7646C58.8809 28.7646 59.6777 28.5915 60.371 28.1755C61.029 27.7595 61.6181 27.2057 62.0341 26.5468C62.519 25.7846 62.8308 24.9534 63.0384 24.087C63.2813 23.0474 63.3847 22.0086 63.3847 20.9346C63.3847 19.8605 63.2805 18.8562 63.0384 17.8511C62.8308 17.0199 62.519 16.188 62.0341 15.461C61.6181 14.8374 61.0298 14.2828 60.371 13.902C59.6784 13.5213 58.8809 13.3129 58.0842 13.3474C57.2875 13.3129 56.4908 13.5205 55.7975 13.902C55.1394 14.2828 54.5503 14.8029 54.1343 15.461C53.6494 16.1888 53.3376 17.0199 53.13 17.8511C52.8872 18.8554 52.7838 19.895 52.7838 20.9346C52.7838 21.9742 52.8879 23.0482 53.13 24.087C53.3031 24.9534 53.6494 25.7846 54.1343 26.5468C54.5503 27.2049 55.1042 27.794 55.7975 28.1755C56.49 28.5915 57.2875 28.7991 58.0842 28.7646Z" fill="#ffffff"/>
<path d="M80.5353 19.3064L80.0503 18.9257C79.9117 18.8215 79.773 18.7181 79.5999 18.6484C79.4612 18.5794 79.2881 18.5442 79.115 18.4752H78.5603C78.283 18.4752 78.0057 18.5097 77.7291 18.6139C77.4518 18.7181 77.2097 18.8215 76.9669 18.9946C76.724 19.1677 76.5164 19.3409 76.3433 19.5493C76.1702 19.7576 75.997 19.9652 75.8928 20.2418V29.8729H71.874V17.7122L74.6801 16.2222L75.8928 17.5391C76.3088 17.0886 76.8282 16.7079 77.3829 16.3961C77.9023 16.1188 78.4914 15.9801 79.0805 15.9801C79.6351 15.9801 80.1545 16.0843 80.6739 16.3264C81.1244 16.534 81.5051 16.8113 81.8866 17.1231L80.5353 19.3056V19.3064Z" fill="#ffffff"/>
<path d="M89.7502 30.1148C88.7459 30.1148 87.7408 29.9417 86.8054 29.5954C85.939 29.2836 85.1422 28.7987 84.4842 28.1751C83.8261 27.5516 83.3059 26.8238 82.9252 25.9926C82.5445 25.1614 82.3706 24.2605 82.4058 23.3596C82.4058 22.3897 82.579 21.4191 82.9605 20.519C83.3067 19.6878 83.8269 18.9256 84.485 18.2667C85.143 17.6431 85.9397 17.1237 86.8062 16.812C87.7415 16.4657 88.7466 16.2573 89.751 16.2926C90.7553 16.2926 91.7604 16.4657 92.6958 16.812C93.5622 17.1237 94.3589 17.6087 95.0514 18.2323C95.7095 18.8214 96.2297 19.5836 96.5759 20.3803C96.9567 21.2115 97.1306 22.1124 97.1306 23.0133C97.1306 23.9832 96.9574 24.9186 96.5759 25.785C96.2297 26.6514 95.7095 27.4137 95.0514 28.0717C94.3589 28.7298 93.5967 29.25 92.6958 29.5962C91.7604 29.9425 90.7553 30.1156 89.751 30.1156L89.7502 30.1148ZM90.2006 28.4861C90.5814 28.4861 90.9284 28.3475 91.2049 28.1399C91.5512 27.8626 91.8285 27.5508 92.0361 27.17C92.279 26.7196 92.4521 26.2691 92.5908 25.7842C92.7294 25.2296 92.7639 24.6757 92.7639 24.1211C92.7639 23.3243 92.695 22.4924 92.5908 21.6957C92.4866 21.0031 92.279 20.3443 91.9672 19.7207C91.6899 19.2013 91.3091 18.7509 90.8587 18.4038C90.3738 18.0576 89.7847 17.8844 89.1955 17.9189C88.8493 17.9189 88.5375 18.0576 88.2602 18.2652C87.9484 18.5425 87.671 18.8543 87.4634 19.2005C87.2206 19.6165 87.0475 20.067 86.9088 20.5174C86.7701 21.0368 86.7012 21.5915 86.7012 22.1461C86.7012 22.9773 86.7701 23.7748 86.9441 24.5715C87.0827 25.264 87.3248 25.9573 87.6366 26.5809C87.9139 27.1003 88.2602 27.5508 88.7106 27.8978C89.1611 28.2441 89.6805 28.4525 90.2006 28.4869V28.4861Z" fill="#ffffff"/>
<path d="M109.287 20.4505L109.079 19.8614C108.94 19.5496 108.767 19.2723 108.56 18.9949C108.317 18.6831 108.005 18.4058 107.624 18.2327C107.208 17.9898 106.723 17.8864 106.204 17.8864C105.788 17.8864 105.373 17.9906 105.026 18.1982C104.679 18.4411 104.368 18.7176 104.159 19.0647C103.882 19.4806 103.709 19.9311 103.605 20.3815C103.466 20.8665 103.397 21.3859 103.397 21.906C103.397 22.6338 103.466 23.3263 103.674 24.0541C103.813 24.6777 104.055 25.3013 104.367 25.8559C104.644 26.3409 105.025 26.7568 105.475 27.0686C105.891 27.3804 106.411 27.5191 106.93 27.5191C107.346 27.5191 107.761 27.4149 108.143 27.2418C108.524 27.0686 108.835 26.8258 109.113 26.514C109.424 26.2022 109.667 25.8215 109.909 25.44C110.152 25.024 110.394 24.5735 110.567 24.1231L112.473 24.6424C112.265 25.4392 111.953 26.2014 111.537 26.8947C111.157 27.5528 110.671 28.1074 110.117 28.6268C109.562 29.0773 108.904 29.458 108.246 29.7008C107.518 29.9437 106.756 30.0816 105.994 30.0816C105.093 30.0816 104.192 29.9085 103.361 29.5622C102.564 29.2159 101.871 28.731 101.247 28.1419C100.658 27.5183 100.173 26.825 99.827 26.0283C99.4807 25.2316 99.3076 24.3651 99.3076 23.4642C99.3076 22.8406 99.3766 22.1826 99.5505 21.559C99.7236 20.9699 99.9665 20.3808 100.243 19.8269C100.555 19.3075 100.936 18.8226 101.351 18.3721C101.767 17.9217 102.252 17.541 102.772 17.2292C103.291 16.9174 103.88 16.6745 104.469 16.5014C105.059 16.3283 105.717 16.2241 106.34 16.2241C106.929 16.2241 107.553 16.2585 108.142 16.3627C108.592 16.4317 109.043 16.5703 109.459 16.7787C109.84 16.9863 110.221 17.2292 110.533 17.541C110.879 17.8872 111.225 18.2687 111.503 18.6839L109.286 20.4505H109.287Z" fill="#ffffff"/>
<path d="M123.768 20.7262C123.803 20.1716 123.664 19.6522 123.422 19.1673C123.353 18.9941 123.214 18.8899 123.041 18.7865C122.903 18.6823 122.695 18.6479 122.522 18.6479C122.314 18.6479 122.106 18.6823 121.933 18.7521C121.69 18.821 121.413 18.9252 121.17 19.0639C120.893 19.2025 120.616 19.3412 120.339 19.5143C120.063 19.6874 119.82 19.895 119.577 20.1034V29.8732H115.489L115.351 11.2338L118.226 9.74377H119.439V17.6428C120.063 17.1923 120.756 16.8461 121.517 16.6032C122.245 16.3956 122.972 16.2569 123.735 16.2569C124.254 16.2569 124.774 16.3611 125.259 16.5687C125.744 16.7763 126.194 17.0537 126.576 17.4352C126.922 17.8159 127.234 18.2664 127.407 18.7521C127.615 19.237 127.719 19.7916 127.719 20.311L127.788 29.8387H123.735V20.727H123.769L123.768 20.7262Z" fill="#ffffff"/>
<path d="M131.671 11.8561C131.671 11.6133 131.74 11.3712 131.844 11.1283C131.948 10.8855 132.121 10.6779 132.294 10.5048C132.502 10.3316 132.745 10.193 132.987 10.0888C133.264 9.98459 133.542 9.91565 133.818 9.91565C134.095 9.91565 134.407 9.95012 134.685 10.0888C134.927 10.193 135.17 10.3316 135.377 10.5048C135.585 10.6779 135.723 10.8855 135.828 11.1283C135.932 11.3712 136.001 11.6133 136.001 11.8906C136.001 12.1679 135.932 12.41 135.828 12.6528C135.723 12.8957 135.55 13.1033 135.377 13.2764C135.17 13.4496 134.927 13.5882 134.685 13.6924C134.407 13.7966 134.13 13.8655 133.818 13.8655C133.541 13.8655 133.229 13.8311 132.987 13.6924C132.744 13.5882 132.502 13.4496 132.294 13.2764C132.087 13.1033 131.948 12.8957 131.844 12.6528C131.74 12.4452 131.671 12.1679 131.671 11.8561Z" fill="url(#paint1_linear_9704_21157)"/>
<path d="M131.843 17.7143L134.683 16.2242H135.896V29.8397H131.877V17.7143H131.843Z" fill="#ffffff"/>
</g>
<defs>
<linearGradient id="paint0_linear_9704_21157" x1="9.01008" y1="8.44893" x2="45.5201" y2="35.5974" gradientUnits="userSpaceOnUse">
<stop stop-color="#EC4125"/>
<stop offset="1" stop-color="#EC4424"/>
</linearGradient>
<linearGradient id="paint1_linear_9704_21157" x1="131.682" y1="11.8906" x2="136.023" y2="11.8906" gradientUnits="userSpaceOnUse">
<stop stop-color="#EC4125"/>
<stop offset="1" stop-color="#EC4424"/>
</linearGradient>
<clipPath id="clip0_9704_21157">
<rect width="128.002" height="32" fill="white" transform="translate(7.99902 4)"/>
</clipPath>
</defs>
</svg>
