<svg width="65" height="64" viewBox="0 0 65 64" fill="none" xmlns="http://www.w3.org/2000/svg">
<g clip-path="url(#clip0_2632_14586)">
<path d="M48.1141 12.3745L0.543945 40.0944L16.8675 51.5748L64.4405 23.8569L48.1141 12.3745Z" fill="#CA2128"/>
<path d="M0.543945 23.8569V40.0945L14.4768 31.9752L0.543945 23.8569Z" fill="#8A1A1C"/>
<path d="M50.5059 31.9753C50.5059 31.9753 64.6298 23.004 64.4387 23.857C64.2477 24.709 64.4387 40.0945 64.4387 40.0945L50.5059 31.9762V31.9753Z" fill="#8A1A1C"/>
<path d="M14.4771 31.975L12.7822 32.9625L30.0374 43.9019L52.3723 30.7975L33.7438 20.748L14.4771 31.975Z" fill="#8A1A1C"/>
<path d="M0.543945 23.8569L48.1141 51.5748L64.4405 40.0944L16.8675 12.3745L0.543945 23.8569Z" fill="#FD4A35"/>
</g>
<defs>
<clipPath id="clip0_2632_14586">
<rect width="64" height="39.2757" fill="white" transform="translate(0.5 12.3623)"/>
</clipPath>
</defs>
</svg>
